<svg xmlns="http://www.w3.org/2000/svg" data-name="Layer 1" viewBox="0 0 100 125" x="0px" y="0px"><path d="m79.7,16.267l-10.385-5.733-10.38,5.732c-.728.402-1.611.402-2.339,0l-10.379-5.732-10.379,5.732c-.728.402-1.611.402-2.339,0l-7.96-5.732v60.818l3.977-2.195c.728-.402,1.611-.402,2.339,0l10.379,5.732,10.379-5.732c.728-.402,1.611-.402,2.339,0l10.379,5.732,10.379-5.732c.749-.414,1.662-.401,2.399.034.737.435,1.19,1.227,1.19,2.084v12.844c0,2.948,2.401,5.347,5.352,5.347s5.347-2.399,5.347-5.347V10.534l-7.96,5.732c-.728.402-1.611.402-2.339,0Zm-38.877,21.347c-.385-.254-1.236-.433-1.987-.59-1.172-.246-2.501-.525-3.654-1.285-1.081-.712-2.371-2.107-2.371-4.705,0-2.542,1.701-4.721,4.103-5.614v-.243c0-1.336,1.083-2.419,2.419-2.419s2.419,1.083,2.419,2.419v.242c1.429.527,2.634,1.513,3.371,2.828.653,1.166.238,2.64-.928,3.293-1.166.653-2.64.238-3.293-.928-.213-.381-.759-.764-1.507-.784-.021,0-.041.003-.062.003-.019,0-.038-.002-.057-.003-.873.023-1.626.576-1.626,1.206,0,.537.112.611.194.665.385.254,1.236.433,1.987.59,1.172.246,2.501.525,3.654,1.285,1.081.712,2.371,2.107,2.371,4.705,0,2.542-1.701,4.721-4.103,5.614v.243c0,1.336-1.083,2.419-2.419,2.419s-2.419-1.083-2.419-2.419v-.242c-1.429-.527-2.634-1.513-3.371-2.828-.653-1.166-.238-2.64.928-3.293,1.166-.653,2.64-.238,3.293.928.219.391.79.786,1.569.786.897,0,1.683-.565,1.683-1.208,0-.537-.112-.611-.194-.665Zm39.479,26.966h-44.648c-1.336,0-2.419-1.083-2.419-2.419s1.083-2.419,2.419-2.419h44.648c1.336,0,2.419,1.083,2.419,2.419s-1.083,2.419-2.419,2.419Zm0-10.739h-44.648c-1.336,0-2.419-1.083-2.419-2.419s1.083-2.419,2.419-2.419h44.648c1.336,0,2.419,1.083,2.419,2.419s-1.083,2.419-2.419,2.419Zm0-10.744h-28.16c-1.336,0-2.419-1.083-2.419-2.419s1.083-2.419,2.419-2.419h28.16c1.336,0,2.419,1.083,2.419,2.419s-1.083,2.419-2.419,2.419Zm0-10.739h-28.16c-1.336,0-2.419-1.083-2.419-2.419s1.083-2.419,2.419-2.419h28.16c1.336,0,2.419,1.083,2.419,2.419s-1.083,2.419-2.419,2.419Zm-5.841,51.76c0,1.96.557,3.792,1.52,5.347H15.353c-2.951,0-5.352-2.399-5.352-5.347v-8.744l7.96,4.396c.728.402,1.611.402,2.339,0l10.385-5.733,10.38,5.732c.728.402,1.611.402,2.339,0l10.379-5.732,10.379,5.732c.728.402,1.611.402,2.339,0l7.96-4.396v8.744Z"/><text x="0" y="115" fill="#000000" font-size="5px" font-weight="bold" font-family="'Helvetica Neue', Helvetica, Arial-Unicode, Arial, Sans-serif">Created by Putri Amaliya</text><text x="0" y="120" fill="#000000" font-size="5px" font-weight="bold" font-family="'Helvetica Neue', Helvetica, Arial-Unicode, Arial, Sans-serif">from the Noun Project</text></svg>